<?xml version="1.0" standalone="no"?>
<!DOCTYPE svg PUBLIC "-//W3C//DTD SVG 20010904//EN"
 "http://www.w3.org/TR/2001/REC-SVG-20010904/DTD/svg10.dtd">
<svg version="1.0" xmlns="http://www.w3.org/2000/svg"
 width="1920.000000pt" height="1080.000000pt" viewBox="0 0 1920.000000 1080.000000"
 preserveAspectRatio="xMidYMid meet">

<g transform="translate(0.000000,1080.000000) scale(0.100000,-0.100000)"
fill="#000000" stroke="none">
<path d="M9490 5741 l0 -230 143 -3 c179 -4 177 -4 177 38 l0 34 -118 0 -118
0 4 195 4 195 -46 0 -46 0 0 -229z"/>
<path d="M9945 5936 c-18 -53 -85 -429 -79 -435 5 -5 24 -11 41 -14 37 -7 32
-15 57 106 8 37 16 71 20 74 3 3 45 -2 92 -11 93 -19 104 -16 104 30 0 21 -22
29 -144 50 l-38 7 7 51 c3 28 9 54 13 58 4 3 53 -3 110 -14 56 -12 105 -19
107 -16 3 2 8 18 11 35 l6 30 -152 30 c-105 21 -153 27 -155 19z"/>
<path d="M9061 5904 c-73 -37 -104 -86 -109 -173 -5 -82 9 -135 48 -189 45
-62 98 -86 181 -80 160 12 237 126 200 293 -34 150 -180 218 -320 149z m167
-64 c90 -55 97 -245 10 -291 -33 -18 -102 -15 -133 5 -59 39 -87 185 -47 250
31 52 115 70 170 36z"/>
<path d="M10380 5818 c-5 -13 -43 -107 -84 -211 -69 -175 -73 -188 -56 -197
52 -28 275 -109 281 -103 4 5 10 20 14 34 6 25 2 27 -92 64 -54 21 -101 41
-105 44 -4 4 15 65 43 136 28 72 60 151 70 177 l19 48 -36 15 c-46 19 -43 19
-54 -7z"/>
<path d="M8600 5765 c-100 -31 -168 -126 -157 -220 8 -74 61 -170 113 -205
139 -96 344 11 344 180 0 90 -68 203 -144 238 -52 25 -92 27 -156 7z m144
-108 c44 -45 66 -100 66 -161 0 -27 -8 -45 -33 -72 -65 -71 -163 -52 -215 43
-28 51 -38 123 -23 161 16 37 75 71 125 72 33 0 46 -6 80 -43z"/>
<path d="M10756 5618 c-81 -143 -196 -351 -194 -353 18 -15 72 -35 78 -28 5 4
56 93 114 197 l105 190 -30 18 c-41 25 -45 24 -73 -24z"/>
<path d="M10956 5533 c-3 -21 -8 -79 -12 -129 l-6 -91 -121 -42 c-116 -40
-164 -60 -142 -61 6 0 23 -11 39 -25 16 -14 35 -25 42 -25 7 0 50 14 95 30
l82 31 -6 -95 -6 -95 37 -31 c20 -16 40 -30 44 -30 5 0 8 29 8 63 0 35 3 98 6
140 l7 76 118 42 c66 23 119 44 119 48 0 3 -16 19 -35 34 l-35 28 -76 -31
c-90 -36 -96 -36 -90 -7 3 12 8 51 11 87 l5 65 -39 28 -39 27 -6 -37z"/>
<path d="M8089 5460 c-46 -33 -96 -70 -111 -82 l-28 -23 135 -179 c74 -99 136
-180 137 -182 2 -1 53 34 113 79 78 58 115 93 129 120 25 51 15 100 -30 145
-29 29 -40 34 -73 30 l-39 -3 2 47 c1 39 -4 52 -28 77 -25 26 -37 31 -77 31
-41 0 -56 -7 -130 -60z m157 -45 c9 -14 13 -32 9 -45 -6 -20 -105 -100 -123
-100 -12 0 -62 65 -62 79 0 16 111 91 136 91 14 0 30 -10 40 -25z m125 -136
c35 -35 22 -67 -51 -125 -71 -58 -71 -58 -116 7 l-28 41 29 25 c91 75 131 87
166 52z"/>
</g>
</svg>
